<svg width="32" height="32" viewBox="0 0 32 32" fill="none" xmlns="http://www.w3.org/2000/svg">
<path d="M24.4852 7.51467C25.5995 8.62897 26.4834 9.95185 27.0865 11.4078C27.6896 12.8637 28 14.4241 28 16C28 17.5759 27.6896 19.1363 27.0865 20.5922C26.4834 22.0482 25.5995 23.371 24.4852 24.4853M24.4852 24.4853L20.7132 20.7133M24.4852 24.4853L27.9999 28M20.7145 11.2853C21.3338 11.9044 21.825 12.6394 22.1601 13.4484C22.4953 14.2573 22.6678 15.1244 22.6678 16C22.6678 16.8756 22.4953 17.7427 22.1601 18.5516C21.825 19.3606 21.3338 20.0956 20.7145 20.7147M20.7145 20.7147L16.9425 16.9427M11.2852 20.7147C10.2632 19.6954 9.60128 18.3707 9.39986 16.9413M7.51453 24.4853C5.93348 22.9051 4.82525 20.9147 4.31474 18.7384C3.80424 16.5621 3.91176 14.2865 4.62519 12.168M15.0572 15.0573C15.1802 14.93 15.3273 14.8284 15.49 14.7585C15.6527 14.6887 15.8276 14.6519 16.0047 14.6503C16.1817 14.6488 16.3573 14.6825 16.5211 14.7496C16.685 14.8166 16.8339 14.9156 16.9591 15.0408C17.0842 15.166 17.1832 15.3149 17.2503 15.4787C17.3173 15.6426 17.3511 15.8182 17.3495 15.9952C17.348 16.1722 17.3112 16.3472 17.2413 16.5099C17.1714 16.6725 17.0699 16.8197 16.9425 16.9427M15.0572 15.0573L3.99986 4M15.0572 15.0573L16.9425 16.9427" stroke="white" stroke-width="1.92" stroke-linecap="round" stroke-linejoin="round"/>
</svg>
