<svg width="48" height="48" viewBox="0 0 42 42" fill="none" xmlns="http://www.w3.org/2000/svg">
<path fill-rule="evenodd" clip-rule="evenodd" d="M21 42C32.598 42 42 32.598 42 21C42 9.40202 32.598 0 21 0C9.40202 0 0 9.40202 0 21C0 32.598 9.40202 42 21 42ZM21.7499 10.65C21.7499 10.2358 21.4141 9.89997 20.9999 9.89997C20.5857 9.89997 20.2499 10.2358 20.2499 10.65V15.445C20.2499 15.8592 20.5857 16.195 20.9999 16.195C21.4141 16.195 21.7499 15.8592 21.7499 15.445V10.65ZM16.5977 13.8919C16.9453 13.6667 17.0446 13.2023 16.8194 12.8547C16.5943 12.507 16.1299 12.4077 15.7822 12.6329C13.1408 14.3438 11.3904 17.3191 11.3904 20.7038C11.3904 26.011 15.6927 30.3133 20.9999 30.3133C26.3071 30.3133 30.6094 26.011 30.6094 20.7038C30.6094 17.3191 28.859 14.3438 26.2176 12.6329C25.8699 12.4077 25.4055 12.507 25.1803 12.8547C24.9552 13.2023 25.0544 13.6667 25.4021 13.8919C27.6348 15.338 29.1094 17.8489 29.1094 20.7038C29.1094 25.1825 25.4787 28.8133 20.9999 28.8133C16.5211 28.8133 12.8904 25.1825 12.8904 20.7038C12.8904 17.8489 14.365 15.338 16.5977 13.8919Z" fill="url(#paint0_radial_205_5346)"/>
<defs>
<radialGradient id="paint0_radial_205_5346" cx="0" cy="0" r="1" gradientUnits="userSpaceOnUse" gradientTransform="translate(21 21) rotate(90) scale(21)">
<stop offset="0.46875" stop-color="white"/>
<stop offset="1" stop-color="#E8E8E8"/>
</radialGradient>
</defs>
</svg>
